<svg class="svg-icon" style="width: 1em; height: 1em;vertical-align: middle;fill: currentColor;overflow: hidden;" viewBox="0 0 1024 1024" version="1.1" xmlns="http://www.w3.org/2000/svg"><path d="M1024 116.363636C1024 51.2 972.8 0 907.636364 0c-55.854545 0-102.4 41.890909-111.709091 93.090909H181.527273c-9.309091-27.927273-32.581818-46.545455-65.163637-46.545454C79.127273 46.545455 46.545455 79.127273 46.545455 116.363636c0 32.581818 18.618182 55.854545 46.545454 65.163637V791.272727c-51.2 9.309091-93.090909 55.854545-93.090909 111.709091C0 972.8 51.2 1024 116.363636 1024c55.854545 0 102.4-41.890909 111.709091-93.090909h567.854546c13.963636 27.927273 46.545455 46.545455 79.127272 46.545454 51.2 0 93.090909-41.890909 93.09091-93.090909 0-32.581818-18.618182-65.163636-46.545455-79.127272V228.072727c60.509091-9.309091 102.4-55.854545 102.4-111.709091zM139.636364 795.927273v-18.618182L772.654545 139.636364h18.618182c4.654545 27.927273 23.272727 51.2 41.890909 69.818181L209.454545 837.818182c-18.618182-23.272727-41.890909-37.236364-69.818181-41.890909zM181.527273 139.636364h130.327272L139.636364 311.854545V181.527273c18.618182-4.654545 37.236364-23.272727 41.890909-41.890909zM139.636364 512V377.018182L377.018182 139.636364H512l-372.363636 372.363636z m437.527272-372.363636h130.327273L139.636364 707.490909v-130.327273L577.163636 139.636364zM228.072727 884.363636l651.636364-656.290909h4.654545v125.672728L358.4 884.363636H228.072727z m195.490909 0L884.363636 423.563636v130.327273L553.890909 884.363636H423.563636z m367.709091 0h-172.218182l265.309091-265.309091V791.272727c-51.2 0-93.090909 41.890909-93.090909 93.090909z" fill="" /></svg>