<?xml version="1.0" encoding="utf-8"?>
<svg xmlns="http://www.w3.org/2000/svg" viewBox="0 0 40 40" width="150" height="150">
  <path fill="#f78f8f" d="M17.519,38.475c-0.592,0-1.147-0.229-1.565-0.648L2.148,24.022c-0.862-0.863-0.862-2.269,0-3.132 L20.539,2.523C21.2,1.863,22.078,1.5,23.013,1.5H35c1.93,0,3.5,1.57,3.5,3.5v12.008c0,0.923-0.375,1.826-1.028,2.478 l-18.388,18.34C18.666,38.245,18.11,38.475,17.519,38.475z M33.143,4.857c-1.103,0-2,0.897-2,2s0.897,2,2,2s2-0.897,2-2 S34.245,4.857,33.143,4.857z" />
  <path fill="#c74343" d="M35,2c1.654,0,3,1.346,3,3v12.008c0,0.803-0.313,1.557-0.881,2.124L18.731,37.473 c-0.324,0.324-0.754,0.502-1.212,0.502c-0.458,0-0.888-0.178-1.212-0.502L2.502,23.669c-0.668-0.668-0.668-1.756,0-2.424 L20.893,2.877C21.459,2.312,22.212,2,23.013,2H35 M33.143,9.357c1.378,0,2.5-1.121,2.5-2.5s-1.122-2.5-2.5-2.5 c-1.379,0-2.5,1.121-2.5,2.5S31.764,9.357,33.143,9.357 M35,1H23.013c-1.06,0-2.077,0.421-2.827,1.17L1.795,20.537 c-1.06,1.06-1.06,2.779,0,3.839L15.599,38.18c0.53,0.53,1.225,0.795,1.919,0.795c0.695,0,1.389-0.265,1.919-0.795l18.387-18.34 C38.577,19.09,39,18.071,39,17.008V5C39,2.791,37.209,1,35,1L35,1z M33.143,8.357c-0.828,0-1.5-0.672-1.5-1.5 c0-0.828,0.672-1.5,1.5-1.5c0.828,0,1.5,0.672,1.5,1.5C34.643,7.686,33.971,8.357,33.143,8.357L33.143,8.357z" />
  <path fill="#fff" d="M10.877,21.837l1.185-1.185c1.538,0.548,3.534,0.425,4.807-0.848c0.319-0.319,0.601-0.601,0.866-1.008l-1.75-1.75l1.502-1.502l1.502,1.502c0.406-0.548,0.901-1.219,1.484-1.803c2.173-2.173,5.125-2.05,7.317,0.142c0.937,0.937,1.414,1.838,1.573,2.422l-2.033,1.255c-0.158-0.513-0.494-1.167-1.184-1.857c-1.325-1.325-2.669-0.901-3.712,0.142c-0.583,0.583-1.007,1.148-1.378,1.767l2.474,2.474l-1.502,1.502l-2.28-2.28c-0.513,0.548-1.044,1.078-1.697,1.45c-0.778,0.424-1.644,0.583-2.58,0.529l-0.036,0.036l4.966,4.966l-1.785,1.785L10.877,21.837z" />
</svg>