<?xml version="1.0" encoding="utf-8"?>
<svg xmlns="http://www.w3.org/2000/svg" viewBox="0 0 80 80" width="150" height="150">
  <path fill="#4e7ab5" d="M58 17.1H69.3V25.6H58z" transform="rotate(-45.001 63.642 21.358)" />
  <path fill="#4e7ab5" d="M31 8H46V16H31z" />
  <path fill="#8bb7f0" d="M31,11.5c-1.4,0-2.5-1.1-2.5-2.5V3c0-1.4,1.1-2.5,2.5-2.5h15c1.4,0,2.5,1.1,2.5,2.5v6 c0,1.4-1.1,2.5-2.5,2.5H31z" />
  <path fill="#4e7ab5" d="M46,1c1.1,0,2,0.9,2,2v6c0,1.1-0.9,2-2,2H31c-1.1,0-2-0.9-2-2V3c0-1.1,0.9-2,2-2H46 M46,0H31 c-1.7,0-3,1.3-3,3v6c0,1.7,1.3,3,3,3h15c1.7,0,3-1.3,3-3V3C49,1.3,47.7,0,46,0L46,0z" />
  <path fill="#8bb7f0" d="M67.6,25.5c-0.4,0-0.8-0.2-1.1-0.4l-6.6-6.6c-0.3-0.3-0.4-0.7-0.4-1.1s0.2-0.8,0.4-1.1l4.4-4.4 c0.3-0.3,0.7-0.4,1.1-0.4c0.4,0,0.8,0.2,1.1,0.4l6.6,6.6c0.3,0.3,0.4,0.7,0.4,1.1s-0.2,0.8-0.4,1.1l-4.4,4.4 C68.3,25.4,68,25.5,67.6,25.5z" />
  <path fill="#4e7ab5" d="M65.4,12c0.3,0,0.5,0.1,0.7,0.3l6.6,6.6c0.2,0.2,0.3,0.4,0.3,0.7s-0.1,0.5-0.3,0.7l-4.4,4.4 c-0.2,0.2-0.4,0.3-0.7,0.3s-0.5-0.1-0.7-0.3l-6.6-6.6C60.1,18,60,17.7,60,17.4s0.1-0.5,0.3-0.7l4.4-4.4C64.9,12.1,65.1,12,65.4,12 M65.4,11c-0.5,0-1,0.2-1.4,0.6L59.5,16c-0.8,0.8-0.8,2,0,2.8l6.6,6.6c0.4,0.4,0.9,0.6,1.4,0.6s1-0.2,1.4-0.6l4.4-4.4 c0.8-0.8,0.8-2,0-2.8l-6.6-6.6C66.4,11.2,65.9,11,65.4,11L65.4,11z" />
  <path fill="#8bb7f0" d="M38.5,79.5c-18.2,0-33-14.8-33-33s14.8-33,33-33s33,14.8,33,33S56.7,79.5,38.5,79.5z" />
  <path fill="#4e7ab5" d="M38.5,14C56.4,14,71,28.6,71,46.5S56.4,79,38.5,79S6,64.4,6,46.5S20.6,14,38.5,14 M38.5,13 C20,13,5,28,5,46.5S20,80,38.5,80S72,65,72,46.5S57,13,38.5,13L38.5,13z" />
  <path fill="#f2faff" d="M38.5,73.5c-14.9,0-27-12.1-27-27s12.1-27,27-27s27,12.1,27,27S53.4,73.5,38.5,73.5z" />
  <path fill="#4e7ab5" d="M38.5,20C53.1,20,65,31.9,65,46.5S53.1,73,38.5,73S12,61.1,12,46.5S23.9,20,38.5,20 M38.5,19 C23.3,19,11,31.3,11,46.5S23.3,74,38.5,74S66,61.7,66,46.5S53.7,19,38.5,19L38.5,19z" />
  <path fill="#66798f" d="M31.3 31.4H33.3V49.099999999999994H31.3z" transform="rotate(-45.001 32.25 40.25)" />
  <path fill="#66798f" d="M38.5 44A2.5 2.5 0 1 0 38.5 49 2.5 2.5 0 1 0 38.5 44zM39 20c-.2 0-.3 0-.5 0s-.3 0-.5 0v5h1V20zM38 73c.2 0 .3 0 .5 0s.3 0 .5 0v-5h-1V73zM27.3 28.1l.9-.5-2.5-4.3c-.3.2-.6.3-.9.5L27.3 28.1zM49.7 64.9l-.9.5 2.5 4.3c.3-.2.6-.3.9-.5L49.7 64.9zM12 47h5v-1h-5c0 .2 0 .3 0 .5S12 46.8 12 47zM60 47h5c0-.2 0-.3 0-.5s0-.3 0-.5h-5V47zM15.3 59.3c.2.3.3.6.5.9l4.3-2.5-.5-.9L15.3 59.3zM56.9 35.3l.5.9 4.3-2.5c-.2-.3-.3-.6-.5-.9L56.9 35.3zM51.3 23.3l-2.5 4.3.9.5 2.5-4.3C51.9 23.6 51.6 23.5 51.3 23.3zM24.8 69.2c.3.2.6.3.9.5l2.5-4.3-.9-.5L24.8 69.2zM61.2 60.2c.2-.3.3-.6.5-.9l-4.3-2.5-.5.9L61.2 60.2zM15.3 33.7l4.3 2.5.5-.9-4.3-2.5C15.6 33.1 15.5 33.4 15.3 33.7z" />
</svg>